<?xml version="1.0" encoding="UTF-8" standalone="no"?>
<!-- Created with Inkscape (http://www.inkscape.org/) -->

<svg
   width="206.29445mm"
   height="45.920029mm"
   viewBox="0 0 206.29444 45.920029"
   version="1.1"
   id="svg1"
   sodipodi:docname="Logo_scaled.svg"
   xml:space="preserve"
   inkscape:version="1.4.2 (2aeb623e1d, 2025-05-12)"
   inkscape:export-filename="../ff422e3/1.svg"
   inkscape:export-xdpi="96"
   inkscape:export-ydpi="96"
   xmlns:inkscape="http://www.inkscape.org/namespaces/inkscape"
   xmlns:sodipodi="http://sodipodi.sourceforge.net/DTD/sodipodi-0.dtd"
   xmlns:xlink="http://www.w3.org/1999/xlink"
   xmlns="http://www.w3.org/2000/svg"
   xmlns:svg="http://www.w3.org/2000/svg"><sodipodi:namedview
     id="namedview1"
     pagecolor="#000000"
     bordercolor="#eeeeee"
     borderopacity="1"
     inkscape:showpageshadow="0"
     inkscape:pageopacity="0"
     inkscape:pagecheckerboard="0"
     inkscape:deskcolor="#505050"
     inkscape:document-units="mm"
     inkscape:zoom="0.71535493"
     inkscape:cx="464.80423"
     inkscape:cy="102.7462"
     inkscape:window-width="1854"
     inkscape:window-height="1011"
     inkscape:window-x="0"
     inkscape:window-y="0"
     inkscape:window-maximized="1"
     inkscape:current-layer="layer1"
     inkscape:export-bgcolor="#000000ff" /><defs
     id="defs1"><linearGradient
       id="linearGradient17"><stop
         style="stop-color:#9a7f22;stop-opacity:1;"
         offset="0"
         id="stop12" /><stop
         style="stop-color:#ceb84e;stop-opacity:1;"
         offset="0.25"
         id="stop13" /><stop
         style="stop-color:#ecdd67;stop-opacity:1;"
         offset="0.375"
         id="stop18" /><stop
         style="stop-color:#e7d964;stop-opacity:1;"
         offset="0.625"
         id="stop19" /><stop
         style="stop-color:#c6ae40;stop-opacity:1;"
         offset="0.75"
         id="stop15" /><stop
         style="stop-color:#cab64c;stop-opacity:1;"
         offset="0.875"
         id="stop16" /><stop
         style="stop-color:#c3aa41;stop-opacity:1;"
         offset="1"
         id="stop17" /></linearGradient><rect
       x="109.03678"
       y="395.60782"
       width="508.83832"
       height="166.35098"
       id="rect1" /><linearGradient
       inkscape:collect="always"
       xlink:href="#linearGradient17"
       id="linearGradient23"
       x1="80.090736"
       y1="138.66394"
       x2="99.843826"
       y2="150.06839"
       gradientUnits="userSpaceOnUse"
       gradientTransform="matrix(1.938285,0,0,1.938285,-44.995671,-43.133555)" /><linearGradient
       inkscape:collect="always"
       xlink:href="#linearGradient17"
       id="linearGradient37"
       x1="110.85046"
       y1="423.71408"
       x2="411.38303"
       y2="423.71408"
       gradientUnits="userSpaceOnUse"
       gradientTransform="matrix(0.5128379,0,0,0.5128379,102.60312,19.743664)" /></defs><g
     inkscape:label="Layer 1"
     inkscape:groupmode="layer"
     id="layer1"
     transform="translate(-107.28145,-213.72921)"><path
       d="m 177.55802,245.92948 v -4.59502 h -9.02595 c -2.48897,0 -4.32151,-1.75049 -4.32151,-4.29416 0,-2.57103 1.83254,-4.32151 4.32151,-4.32151 h 9.02595 v -4.56768 h -8.69773 c -5.44292,0 -9.40886,3.58303 -9.40886,8.88919 0,5.30616 3.96594,8.88918 9.40886,8.88918 z m 24.99907,0 -9.08064,-16.4655 c -0.49232,-0.87525 -1.20346,-1.31287 -2.1334,-1.31287 h -1.09406 c -0.92995,0 -1.64108,0.43762 -2.1334,1.31287 l -9.08065,16.4655 h 5.27881 l 6.50962,-12.25339 3.036,5.71643 h -4.29416 l -2.024,3.80183 h 8.34216 l 1.47697,2.73513 z m 21.90839,0 -4.48562,-5.2241 c 2.21546,-1.0667 3.63773,-3.20011 3.63773,-5.90789 0,-3.96595 -2.95394,-6.64638 -7.02929,-6.64638 h -12.2534 v 17.77837 h 4.75913 v -13.21069 h 7.49427 c 1.31286,0 2.24281,0.90259 2.24281,2.27016 0,1.36757 -0.92995,2.27016 -2.24281,2.27016 h -6.1267 v 4.1574 h 4.2121 l 3.55567,4.51297 z m 24.42468,0 -9.08064,-16.4655 c -0.49233,-0.87525 -1.20346,-1.31287 -2.13341,-1.31287 h -1.09405 c -0.92995,0 -1.64108,0.43762 -2.1334,1.31287 l -9.08065,16.4655 h 5.27881 l 6.50962,-12.25339 3.036,5.71643 h -4.29416 l -2.024,3.80183 h 8.34215 l 1.47698,2.73513 z m 13.59358,-4.40356 c 4.13005,0 7.084,-2.70778 7.084,-6.67373 0,-3.99329 -2.95395,-6.70108 -7.084,-6.70108 h -11.81577 v 17.77837 h 4.75913 v -13.21069 h 7.13869 c 1.28552,0 2.24281,0.90259 2.24281,2.29751 0,1.34022 -0.95729,2.27016 -2.24281,2.27016 h -5.77112 v 4.23946 z m 28.0077,4.40356 -9.08064,-16.4655 c -0.49233,-0.87525 -1.20346,-1.31287 -2.1334,-1.31287 h -1.09406 c -0.92994,0 -1.64108,0.43762 -2.1334,1.31287 l -9.08065,16.4655 h 5.27881 l 6.50962,-12.25339 3.036,5.71643 h -4.29416 l -2.024,3.80183 h 8.34216 l 1.47697,2.73513 z m 23.08446,0 -7.87719,-9.24475 7.19341,-8.53362 h -5.68908 l -4.54032,5.38822 -4.51298,-5.38822 h -6.04464 l 7.16605,8.50627 -7.79513,9.2721 h 5.68908 l 5.1147,-6.12669 5.25145,6.12669 z"
       id="text1"
       style="font-size:53.3333px;font-family:'Good Timing';-inkscape-font-specification:'Good Timing';white-space:pre;fill:url(#linearGradient37);stroke-width:0.512838"
       aria-label="CARAPAX" /><path
       id="path3"
       style="fill:url(#linearGradient23);stroke-width:0.512837"
       d="m 125.12661,213.72921 -4.25996,7.37807 4.25996,7.37905 h 8.51992 l 4.25996,-7.37905 -4.25996,-7.37807 z m -13.5852,7.79075 -4.25996,7.37804 4.25996,7.37905 h 8.52092 l 4.25996,-7.37905 -4.25996,-7.37804 z m 27.16939,0 -4.25996,7.37804 4.25996,7.37905 h 8.51992 l 4.26097,-7.37905 -4.26097,-7.37804 z m -13.58419,7.78971 -4.25996,7.37905 4.25996,7.37907 h 8.51992 l 4.25996,-7.37907 -4.25996,-7.37905 z m -13.5852,7.79074 -4.25996,7.37906 4.25996,7.37905 h 8.52092 l 4.25996,-7.37905 -4.25996,-7.37906 z m 27.16939,0 -4.25996,7.37906 4.25996,7.37905 h 8.51992 l 4.26097,-7.37905 -4.26097,-7.37906 z m -13.58419,7.79073 -4.25996,7.37905 4.25996,7.37905 h 8.51992 l 4.25996,-7.37905 -4.25996,-7.37905 z" /></g></svg>
